<svg xmlns="http://www.w3.org/2000/svg" version="1.2" baseProfile="tiny-ps" viewBox="0 0 512 512"><title>Luxe Vault</title><rect width="512" height="512" fill="#000000"/><path fill="#D4AF37" d="M140.56 170.2L173.32 170.2L173.32 341.8L140.56 341.8ZM128.08 170.2L185.8 170.2L185.8 176.44L128.08 176.44ZM128.08 335.56L232.6 335.56L232.6 341.8L128.08 341.8ZM226.36 302.8L232.6 302.8L232.6 341.8L226.36 341.8ZM248.2 176.44L282.52 176.44L321.52 341.8L300.93 341.8ZM365.2 176.44L371.44 176.44L321.52 341.8L314.03 341.8ZM234.16 170.2L296.56 170.2L296.56 176.44L234.16 176.44ZM352.72 170.2L383.92 170.2L383.92 176.44L352.72 176.44Z"/></svg>
